<?xml version="1.0" standalone="no"?>
<!DOCTYPE svg PUBLIC "-//W3C//DTD SVG 20010904//EN"
 "http://www.w3.org/TR/2001/REC-SVG-20010904/DTD/svg10.dtd">
<svg version="1.0" xmlns="http://www.w3.org/2000/svg"
 width="351.000000pt" height="351.000000pt" viewBox="0 0 351.000000 351.000000"
 preserveAspectRatio="xMidYMid meet">
<metadata>
Created by potrace 1.11, written by Peter Selinger 2001-2013
</metadata>
<g transform="translate(0.000000,351.000000) scale(0.100000,-0.100000)"
fill="#000000" stroke="none">
<path d="M0 1755 l0 -1755 1755 0 1755 0 0 1755 0 1755 -1755 0 -1755 0 0
-1755z m3065 575 l-180 -180 -215 0 -216 0 -69 -70 -69 -70 214 0 215 0 -180
-180 -180 -180 -215 0 -216 0 -64 -65 -64 -65 214 0 215 0 -180 -180 -180
-180 -209 0 -209 0 -46 -30 c-128 -81 -265 -122 -415 -122 -128 0 -217 21
-331 77 -258 127 -415 380 -415 670 0 127 24 229 82 345 34 69 60 103 138 180
133 133 271 202 443 220 40 4 576 8 1192 9 l1120 1 -180 -180z"/>
<path d="M890 2005 l0 -115 -115 0 -115 0 0 -135 0 -135 115 0 115 0 0 -115 0
-115 130 0 130 0 0 115 0 115 115 0 115 0 0 135 0 135 -115 0 -115 0 0 115 0
115 -130 0 -130 0 0 -115z"/>
</g>
</svg>
